<?xml version="1.0" encoding="UTF-8" ?>
<!DOCTYPE svg PUBLIC "-//W3C//DTD SVG 1.1//EN" "http://www.w3.org/Graphics/SVG/1.1/DTD/svg11.dtd">
<svg width="512pt" height="512pt" viewBox="0 0 512 512" version="1.1" xmlns="http://www.w3.org/2000/svg">
<g id="#ffffffff">

</g>
<g id="#000000ff">
<path fill="#000000" opacity="1.00" d=" M 32.00 48.00 C 128.00 48.00 224.00 48.00 320.00 48.00 C 320.00 69.33 320.00 90.67 320.00 112.00 C 309.33 112.00 298.67 112.00 288.00 112.00 C 288.00 101.33 288.00 90.67 288.00 80.00 C 256.00 80.00 224.00 80.00 192.00 80.00 C 192.00 165.33 192.00 250.67 192.00 336.00 C 208.00 336.00 224.00 336.00 240.00 336.00 C 240.00 346.67 240.00 357.33 240.00 368.00 C 197.33 368.00 154.67 368.00 112.00 368.00 C 112.00 357.33 112.00 346.67 112.00 336.00 C 128.00 336.00 144.00 336.00 160.00 336.00 C 160.00 250.67 160.00 165.33 160.00 80.00 C 128.00 80.00 96.00 80.00 64.00 80.00 C 64.00 90.67 64.00 101.33 64.00 112.00 C 53.33 112.00 42.67 112.00 32.00 112.00 C 32.00 90.67 32.00 69.33 32.00 48.00 Z" />
<path fill="#000000" opacity="1.00" d=" M 256.00 240.00 C 330.67 240.00 405.33 240.00 480.00 240.00 C 480.00 261.33 480.00 282.67 480.00 304.00 C 469.33 304.00 458.67 304.00 448.00 304.00 C 448.00 293.33 448.00 282.67 448.00 272.00 C 426.67 272.00 405.33 272.00 384.00 272.00 C 384.00 325.33 384.00 378.67 384.00 432.00 C 400.00 432.00 416.00 432.00 432.00 432.00 C 432.00 442.67 432.00 453.33 432.00 464.00 C 389.33 464.00 346.67 464.00 304.00 464.00 C 304.00 453.33 304.00 442.67 304.00 432.00 C 320.00 432.00 336.00 432.00 352.00 432.00 C 352.00 378.67 352.00 325.33 352.00 272.00 C 330.67 272.00 309.33 272.00 288.00 272.00 C 288.00 282.67 288.00 293.33 288.00 304.00 C 277.33 304.00 266.67 304.00 256.00 304.00 C 256.00 282.67 256.00 261.33 256.00 240.00 Z" />
</g>
</svg>
